<?xml version="1.0" encoding="UTF-8"?>
<!DOCTYPE svg PUBLIC "-//W3C//DTD SVG 1.1//EN" "http://www.w3.org/Graphics/SVG/1.1/DTD/svg11.dtd">
<!-- Creator: CorelDRAW 2021 (64 Bit) -->
<svg xmlns="http://www.w3.org/2000/svg" xml:space="preserve" width="10.993mm" height="10.993mm" version="1.1" style="shape-rendering:geometricPrecision; text-rendering:geometricPrecision; image-rendering:optimizeQuality; fill-rule:evenodd; clip-rule:evenodd"
viewBox="0 0 1099.3 1099.3"
 xmlns:xlink="http://www.w3.org/1999/xlink"
 xmlns:xodm="http://www.corel.com/coreldraw/odm/2003">
 <defs>
  <style type="text/css">
   <![CDATA[
    .fil0 {fill:#0B437A}
   ]]>
  </style>
 </defs>
 <g id="Camada_x0020_1">
  <metadata id="CorelCorpID_0Corel-Layer"/>
  <g id="_1775236322256">
   <path class="fil0" d="M642.1 161.43l-186.28 0 -1.15 -11.73c-7.54,-76.83 -65.66,-149.03 -146.85,-149.03 -81.2,0 -139.3,72.2 -146.84,149.03l-1.15 11.73 -52.96 0c-59.41,0 -107.57,48.16 -107.57,107.57l0 723.42c0,28.53 11.33,55.89 31.51,76.05 20.18,20.17 47.53,31.52 76.06,31.52l884.2 0c59.41,0 107.57,-48.16 107.57,-107.57l0 -723.42c0,-28.53 -11.33,-55.89 -31.51,-76.06 -20.17,-20.16 -47.54,-31.51 -76.06,-31.51l-52.96 0 -1.15 -11.73c-7.54,-76.83 -65.64,-149.03 -146.84,-149.03 -81.2,0 -139.31,72.21 -146.86,149.03l-1.16 11.73zm402.15 295.52l0 535.47c0,29.37 -23.82,53.2 -53.19,53.2l-884.2 0c-14.11,0 -27.63,-5.61 -37.61,-15.58 -9.97,-9.97 -15.57,-23.51 -15.57,-37.61l0 -535.48 990.57 0zm-341.43 -241.14l288.26 0c14.1,0 27.64,5.6 37.62,15.58 9.96,9.98 15.57,23.51 15.57,37.61l0 133.57 -990.57 0 0 -133.57c0,-29.38 23.81,-53.19 53.19,-53.19l58.87 0 2.87 9.09c19.37,61.44 72.64,111.48 139.22,111.48 15,0 27.18,-12.19 27.18,-27.19 0,-15 -12.18,-27.19 -27.18,-27.19 -32.52,0 -59.39,-19.21 -75.64,-46.55l-11.67 -19.64 427.5 0 2.87 9.09c19.37,61.44 72.63,111.48 139.21,111.48 15,0 27.19,-12.19 27.19,-27.19 0,-15 -12.19,-27.19 -27.19,-27.19 -32.52,0 -59.38,-19.21 -75.63,-46.55l-11.67 -19.64zm181.33 -54.38l-188.07 0 2.44 -15.07c7.51,-46.49 41.03,-91.3 91.6,-91.3 50.57,0 84.09,44.81 91.59,91.3l2.44 15.07zm-482.29 0l-188.08 0 2.44 -15.07c7.51,-46.5 41.03,-91.3 91.61,-91.3 50.57,0 84.08,44.81 91.59,91.29l2.44 15.08zm169.67 391.9c-5.04,-7.5 -13.52,-12.02 -22.56,-12.02 -9.06,0 -17.51,4.5 -22.57,12.02l-64.61 96.13 -111.4 31.74c-8.71,2.48 -15.61,9.14 -18.4,17.75 -2.8,8.61 -1.12,18.05 4.46,25.17l71.49 91.22 -0.22 4.78c-1.44,36.94 -2.71,73.93 -4.05,110.91 -0.32,9.02 3.89,17.69 11.19,22.99 7.3,5.3 16.86,6.64 25.32,3.54l108.78 -39.78 108.78 39.78c8.46,3.1 18.02,1.76 25.31,-3.54 7.29,-5.3 11.53,-13.97 11.2,-22.99l-4.22 -115.69 2.87 -3.72c22.61,-29.31 45.73,-58.36 68.58,-87.5 5.58,-7.12 7.25,-16.56 4.46,-25.16 -2.8,-8.61 -9.69,-15.28 -18.4,-17.76l-111.4 -31.74 -64.61 -96.13zm-22.57 63.92l47.61 70.81c3.58,5.32 8.94,9.21 15.11,10.97l82.05 23.38 -52.64 67.16c-3.94,5.03 -6,11.38 -5.77,17.77l3.1 85.25 -80.12 -29.3c-6.04,-2.21 -12.65,-2.21 -18.69,0l-80.12 29.3 3.1 -85.25c0.23,-6.38 -1.83,-12.75 -5.77,-17.77l-52.7 -67.24 18.7 -5.23c21.14,-5.99 42.28,-12.04 63.42,-18.07 6.17,-1.76 11.53,-5.65 15.11,-10.97l47.61 -70.81z"/>
  </g>
 </g>
</svg>
