<?xml version="1.0" encoding="UTF-8"?>
<!DOCTYPE svg PUBLIC "-//W3C//DTD SVG 1.1//EN" "http://www.w3.org/Graphics/SVG/1.1/DTD/svg11.dtd">
<!-- Creator: CorelDRAW 2021 (64 Bit) -->
<svg xmlns="http://www.w3.org/2000/svg" xml:space="preserve" width="11.765mm" height="11.25mm" version="1.1" style="shape-rendering:geometricPrecision; text-rendering:geometricPrecision; image-rendering:optimizeQuality; fill-rule:evenodd; clip-rule:evenodd"
viewBox="0 0 1176.5 1125"
 xmlns:xlink="http://www.w3.org/1999/xlink"
 xmlns:xodm="http://www.corel.com/coreldraw/odm/2003">
 <defs>
  <style type="text/css">
   <![CDATA[
    .fil0 {fill:#0B437A;fill-rule:nonzero}
   ]]>
  </style>
 </defs>
 <g id="Camada_x0020_1">
  <metadata id="CorelCorpID_0Corel-Layer"/>
  <g id="_1775230354560">
   <g>
    <path class="fil0" d="M1102.62 91.88l-835.64 0c-16.52,-40.37 -50.84,-70.78 -92.92,-82.29 -42.07,-11.52 -87.11,-2.84 -121.88,23.49 -34.77,26.32 -55.34,67.32 -55.67,110.94l0 796.07c-5,48.18 10.54,96.24 42.79,132.38 32.27,36.13 78.27,57 126.7,57.47l936.63 0c18.77,-0.4 36.62,-8.23 49.63,-21.77 13.02,-13.53 20.13,-31.68 19.78,-50.45l0 -893.62c0.35,-18.78 -6.76,-36.92 -19.78,-50.46 -13.01,-13.54 -30.86,-21.36 -49.63,-21.76l-0.01 0zm-576.52 41.99c0.6,52.7 -1.62,149.57 -17.16,189.25 -2.95,7.56 -7.46,9.27 -35.53,7.96 -38.05,-1.93 -101.49,-4.86 -118.67,100.07 -13.49,82.49 -52.39,113.29 -77.61,124.79 0,0 -0.27,-418.7 -0.52,-422.06l249.49 -0.01zm-487.6 10.15c4.05,-129.77 192.5,-130.1 196.66,0l0 705.62c-27.94,-23.18 -63.44,-35.26 -99.71,-33.93 -36.28,1.33 -70.79,15.98 -96.95,41.15l0 -712.84zm0 816.44c-0.62,-27.39 9.92,-53.86 29.19,-73.33 19.27,-19.48 45.62,-30.29 73.02,-29.96 20.5,-0.03 40.55,6 57.65,17.31 17.09,11.32 30.47,27.42 38.45,46.29 4.04,9 13.78,13.99 23.44,12.02 9.66,-1.96 16.67,-10.36 16.89,-20.22l0 -311.9c33.46,-9.89 99.66,-44.27 119.06,-162.75 11.11,-67.96 38.01,-66.6 75.22,-64.92 26.17,1.35 61.95,3.02 76.64,-34.58 19.51,-49.85 20.53,-158.2 20,-204.55l534.58 0c15.9,0.84 28.15,14.34 27.43,30.24l0 576.8c-33.44,9.92 -99.58,44.31 -119.08,162.73 -11.05,67.92 -37.81,66.71 -75.18,64.91 -78.05,-9.21 -85.17,43.44 -92.76,119.41l-677.03 0c-33.8,-0.04 -66.22,-13.49 -90.12,-37.39 -23.9,-23.91 -37.34,-56.32 -37.38,-90.13l-0.02 0.02zm1064.14 127.5l-217.41 0 0 0.01c1.43,-23.61 5.81,-46.94 13.03,-69.46 2.97,-7.58 7.43,-9.34 35.59,-8.01 38.11,1.76 101.49,4.71 118.57,-100.06 13.58,-82.51 52.52,-113.32 77.65,-124.8l0 272.08c0.72,15.9 -11.53,29.4 -27.43,30.24l0 0z"/>
    <path class="fil0" d="M765.22 369.93c3.93,3.94 9.27,6.15 14.84,6.15 5.57,0 10.91,-2.21 14.84,-6.15l33.64 -33.63 33.62 33.63c8.2,8.2 21.49,8.2 29.68,0 8.2,-8.19 8.2,-21.49 0,-29.68l-33.63 -33.64 33.63 -33.64c8.2,-8.19 8.2,-21.48 0,-29.68 -8.19,-8.2 -21.48,-8.2 -29.68,0l-33.62 33.63 -33.64 -33.63c-8.2,-8.2 -21.48,-8.2 -29.68,0 -8.19,8.2 -8.19,21.49 0,29.68l33.63 33.64 -33.63 33.64c-3.94,3.94 -6.15,9.27 -6.15,14.84 0,5.57 2.21,10.9 6.15,14.84z"/>
    <path class="fil0" d="M597.02 828.29c-3.94,-3.95 -9.28,-6.16 -14.84,-6.16 -5.57,0 -10.91,2.21 -14.85,6.16l-33.62 33.63 -33.63 -33.63 -0.01 0c-8.2,-8.2 -21.49,-8.2 -29.68,0 -8.2,8.19 -8.2,21.48 0,29.68l33.64 33.64 -33.64 33.63c-8.19,8.2 -8.19,21.49 0,29.69 8.2,8.2 21.48,8.2 29.68,0l33.63 -33.63 33.62 33.63 0.01 0c8.2,8.2 21.49,8.2 29.68,0 8.2,-8.2 8.2,-21.49 0,-29.69l-33.63 -33.64 33.63 -33.64 0 0.01c3.95,-3.94 6.16,-9.28 6.16,-14.84 0,-5.57 -2.21,-10.9 -6.15,-14.84l0 0z"/>
    <path class="fil0" d="M828.55 398.53c-5.57,-0.01 -10.91,2.2 -14.84,6.13 -3.94,3.94 -6.15,9.28 -6.15,14.86l0 52.48c0,11.59 9.4,20.99 20.99,20.99 11.6,0 20.99,-9.4 20.99,-20.99l0 -52.48c0.01,-5.58 -2.2,-10.92 -6.14,-14.86 -3.93,-3.93 -9.27,-6.14 -14.85,-6.13z"/>
    <path class="fil0" d="M828.55 573.37c-5.57,0 -10.91,2.21 -14.84,6.15 -3.94,3.93 -6.15,9.27 -6.15,14.84l0 122.38c0,11.59 9.4,20.99 20.99,20.99 11.6,0 20.99,-9.4 20.99,-20.99l0 -122.38c0.01,-5.57 -2.2,-10.91 -6.14,-14.84 -3.93,-3.94 -9.27,-6.15 -14.85,-6.15z"/>
    <path class="fil0" d="M849.54 891.62l0 -52.48c-0.21,-11.43 -9.55,-20.58 -20.99,-20.58 -11.43,0 -20.77,9.15 -20.99,20.58l0 31.49 -31.49 0c-11.43,0.22 -20.59,9.55 -20.59,20.99 0,11.45 9.16,20.78 20.6,20.99l52.47 0c5.58,0 10.92,-2.21 14.85,-6.14 3.94,-3.94 6.15,-9.28 6.14,-14.85l0 0z"/>
    <path class="fil0" d="M694.66 870.63l-52.48 0c-11.44,0.22 -20.6,9.55 -20.6,20.99 0,11.45 9.16,20.78 20.6,20.99l52.48 0c11.43,-0.22 20.58,-9.55 20.58,-20.99 0,-11.44 -9.15,-20.76 -20.58,-20.99z"/>
   </g>
  </g>
 </g>
</svg>
