<?xml version="1.0" encoding="UTF-8"?>
<!DOCTYPE svg PUBLIC "-//W3C//DTD SVG 1.1//EN" "http://www.w3.org/Graphics/SVG/1.1/DTD/svg11.dtd">
<!-- Creator: CorelDRAW 2021 (64 Bit) -->
<svg xmlns="http://www.w3.org/2000/svg" xml:space="preserve" width="12.545mm" height="13.469mm" version="1.1" style="shape-rendering:geometricPrecision; text-rendering:geometricPrecision; image-rendering:optimizeQuality; fill-rule:evenodd; clip-rule:evenodd"
viewBox="0 0 1254.5 1346.9"
 xmlns:xlink="http://www.w3.org/1999/xlink"
 xmlns:xodm="http://www.corel.com/coreldraw/odm/2003">
 <defs>
  <style type="text/css">
   <![CDATA[
    .fil1 {fill:#0B437A}
    .fil0 {fill:black;fill-rule:nonzero}
   ]]>
  </style>
 </defs>
<symbol id="p" viewBox="-11642.8 -12213.97 542.95 553.97">
 <path class="fil0" d="M-11642.8 -11884.34l0 -329.63 173.63 0.01 0 54.02c0,29.49 -0.28,66.15 -0.55,110.24 -0.41,44.1 -0.55,73.59 -0.55,88.19 0,43.82 1.1,75.24 3.31,94.26 2.48,19.15 6.34,32.93 11.58,41.34 7.3,11.44 16.67,20.26 28.11,26.46 11.3,5.93 24.39,8.82 39.14,8.82 35.97,0 64.22,-13.78 84.89,-41.34 20.53,-27.56 30.87,-65.87 30.87,-115.2l0 -266.79 172.52 0 0 540.17 -172.53 0 0 -78.27c-26.18,31.69 -53.74,54.98 -82.68,70.01 -29.08,14.61 -61.19,22.05 -96.46,22.05 -62.15,0 -109.56,-19.02 -142.21,-57.33 -32.8,-38.17 -49.06,-93.85 -49.06,-167.02l-0.01 0.01z"/>
</symbol>
<symbol id="o" viewBox="-11629.02 -12393.65 592.56 719.89">
 <path class="fil0" d="M-11629.02 -12393.65l308.13 0c91.5,0 161.64,20.39 210.57,61.19 49.19,40.51 73.86,98.39 73.86,173.63 0,75.38 -24.67,133.39 -73.86,174.18 -48.92,40.79 -119.06,61.19 -210.57,61.19l-122.92 0 0 249.7 -185.21 0 0 -719.89zm185.21 134.5l0 201.19 103.08 0c35.97,0 63.67,-8.82 83.23,-26.46 19.84,-17.64 29.77,-42.44 29.77,-74.41 0,-32.25 -9.92,-57.05 -29.77,-74.41 -19.57,-17.23 -47.27,-25.91 -83.23,-25.91l-103.08 0z"/>
</symbol>
<symbol id="r" viewBox="-11636.74 -12424.52 542.95 750.75">
 <path class="fil0" d="M-11093.79 -12002.84l0 329.07 -173.63 0 0 -250.8c0,-47.41 -1.1,-79.93 -3.31,-97.56 -2.21,-17.63 -5.93,-30.59 -11.02,-39.14 -6.61,-11.02 -15.85,-19.57 -27.56,-25.91 -11.44,-6.2 -24.53,-9.37 -39.14,-9.37 -36.1,0 -64.35,14.06 -84.89,41.89 -20.67,27.56 -30.87,66.01 -30.87,115.2l0 265.68 -172.53 0.01 0 -750.75 172.53 0 0 289.39c26.04,-31.14 53.6,-54.3 82.68,-69.45 29.35,-15.02 61.74,-22.6 97.01,-22.6 62.42,0 109.83,19.29 142.21,57.88 32.25,38.31 48.51,93.7 48.51,166.47l0.01 -0.01z"/>
</symbol>
<symbol id="d" viewBox="-11677.52 -12227.21 593.65 567.21">
 <path class="fil0" d="M-11379.87 -12103.74c-38.31,0 -67.53,13.78 -87.64,41.34 -20.26,27.56 -30.32,67.25 -30.32,119.06 0,51.81 10.06,91.5 30.32,119.06 20.12,27.29 49.33,40.79 87.64,40.79 37.48,0 66.15,-13.5 85.99,-40.79 20.12,-27.56 30.32,-67.25 30.32,-119.06 0,-51.81 -10.2,-91.5 -30.32,-119.06 -19.84,-27.56 -48.51,-41.34 -85.99,-41.34zm0 -123.47c92.88,0 165.5,25.22 217.73,75.52 52.09,50.02 78.27,119.48 78.27,208.36 0,88.61 -26.18,158.06 -78.27,208.36 -52.23,50.02 -124.85,74.97 -217.73,74.97 -93.43,0 -166.33,-24.94 -218.83,-74.97 -52.64,-50.3 -78.82,-119.75 -78.82,-208.36 0,-88.88 26.18,-158.34 78.82,-208.36 52.5,-50.3 125.4,-75.52 218.83,-75.52z"/>
</symbol>
<symbol id="f" viewBox="-11636.74 -12227.18 542.95 553.41">
 <path class="fil0" d="M-11093.79 -12002.84l0 329.07 -173.63 0 0 -251.9c0,-46.58 -1.1,-78.82 -3.31,-96.46 -2.21,-17.64 -5.93,-30.59 -11.02,-39.14 -6.61,-11.02 -15.85,-19.57 -27.56,-25.91 -11.44,-6.2 -24.53,-9.37 -39.14,-9.37 -36.1,0 -64.35,14.06 -84.89,41.89 -20.67,27.56 -30.87,66.01 -30.87,115.2l0 265.68 -172.53 0.01 0 -540.17 172.53 -0.01 0 78.82c26.04,-31.14 53.6,-54.3 82.68,-69.45 29.35,-15.02 61.74,-22.6 97.01,-22.6 62.42,0 109.83,19.29 142.21,57.88 32.25,38.31 48.51,93.7 48.51,166.47l0.01 -0.01z"/>
</symbol>
<symbol id="g" viewBox="-11636.74 -12424.51 172.53 750.74">
 <path class="fil0" d="M-11636.74 -12213.94l172.53 0 0 540.17 -172.53 0 0 -540.17zm0 -210.57l172.53 0 0 141.11 -172.53 0 0 -141.11z"/>
</symbol>
<symbol id="h" viewBox="-11701.22 -12424.52 419.47 750.74">
 <path class="fil0" d="M-11281.75 -12424.52l0 113.55 -95.36 0.01c-24.25,0 -41.34,4.41 -51.26,13.23 -9.65,8.82 -14.33,24.25 -14.33,46.3l0 37.48 147.72 0 0 123.47 -147.72 0 0 416.7 -172.53 0 0 -416.7 -85.99 0 0 -123.47 85.99 0 0 -37.48c0,-58.71 16.26,-102.25 49.06,-130.64 32.66,-28.25 83.51,-42.44 152.69,-42.44l131.73 -0.01z"/>
</symbol>
<symbol id="j" viewBox="-11707.84 -12213.94 614.05 753.53">
 <path class="fil0" d="M-11707.84 -12213.94l172.53 0 145.52 366.57 123.47 -366.57 172.53 0 -227.1 591.47c-22.88,59.81 -49.47,101.7 -79.93,125.68 -30.59,24.25 -70.56,36.38 -120.16,36.38l-100.32 -0.01 0 -113.55 54.01 0c29.35,0 50.71,-4.82 63.94,-14.33 13.5,-9.23 23.98,-25.77 31.42,-49.61l4.96 -14.88 -240.87 -561.15z"/>
</symbol>
<symbol id="q" viewBox="-11629.02 -12393.65 644.92 719.88">
 <polygon class="fil0" points="-11629.02,-12393.65 -11421.76,-12393.65 -11159.93,-11899.76 -11159.93,-12393.65 -10984.1,-12393.65 -10984.1,-11673.77 -11191.35,-11673.77 -11453.18,-12167.66 -11453.18,-11673.77 -11629.02,-11673.77 "/>
</symbol>
<symbol id="m" viewBox="-11677.52 -12227.21 476.8 567.21">
 <path class="fil0" d="M-11200.72 -12196.87l0 140.56c-23.15,-16.12 -46.71,-28.11 -70.56,-35.83 -23.56,-7.72 -47.96,-11.58 -73.31,-11.58 -48.23,0 -85.85,14.19 -113,42.44 -26.87,27.97 -40.24,67.25 -40.24,117.96 0,50.44 13.37,89.71 40.24,117.96 27.15,27.97 64.77,41.89 113,41.89 26.73,0 52.37,-3.86 76.62,-11.58 24.25,-7.99 46.58,-19.98 67.25,-35.83l0 141.11c-26.87,9.92 -54.3,17.23 -82.13,22.05 -27.56,5.1 -55.53,7.72 -83.78,7.72 -97.43,0 -173.63,-24.94 -228.76,-74.97 -54.85,-49.89 -82.13,-119.34 -82.13,-208.36 0,-89.3 27.29,-158.89 82.13,-208.91 55.12,-49.89 131.33,-74.97 228.76,-74.97 28.25,0 56.23,2.62 83.78,7.72 27.56,4.82 54.85,12.4 82.13,22.6l0 0.02z"/>
</symbol>
<symbol id="n" viewBox="-11753.04 -12424.51 288.83 964.07">
 <path class="fil0" d="M-11636.74 -12213.94l172.53 0 0 530.26c0,72.35 -17.5,127.61 -52.37,165.91 -34.59,38.17 -84.89,57.33 -151.03,57.33l-85.43 0 0 -113.55 30.31 0c32.66,0 55.12,-7.44 67.25,-22.05 12.4,-14.75 18.74,-43.96 18.74,-87.64l0 -530.26zm0 -210.57l172.53 0 0 141.11 -172.53 0 0 -141.11z"/>
</symbol>
<symbol id="s" viewBox="-11637.84 -12227.21 869.27 553.43">
 <path class="fil0" d="M-11136.23 -12124.13c21.64,-33.35 47.54,-58.98 77.72,-76.62 30.04,-17.64 63.12,-26.46 99.22,-26.46 62.01,0 109.28,19.29 141.66,57.88 32.66,38.31 49.06,93.7 49.06,166.47l0 329.07 -173.63 0.01 0 -281.67 0 -12.68c0.28,-4.69 0.55,-11.3 0.55,-19.84 0,-38.17 -5.79,-65.73 -17.09,-82.68 -11.02,-17.23 -29.08,-25.91 -54.02,-25.91 -32.8,0 -58.15,13.64 -76.07,40.79 -18.05,26.87 -27.29,65.87 -27.56,116.86l0 265.13 -173.63 -0.01 0 -281.67c0,-59.81 -5.24,-98.26 -15.43,-115.2 -10.34,-17.23 -28.66,-25.91 -55.12,-25.91 -33.07,0 -58.71,13.64 -76.62,40.79 -18.05,26.87 -27.01,65.6 -27.01,116.31l0 265.68 -173.64 0 0 -540.17 173.64 -0.01 0 78.82c21.22,-30.45 45.48,-53.47 72.76,-68.9 27.56,-15.43 57.88,-23.15 90.95,-23.15 37.48,0 70.56,9.09 99.22,27.01 28.66,18.05 50.3,43.41 65.05,76.07l-0.01 -0.01z"/>
</symbol>
<symbol id="i" viewBox="-11629.02 -12393.65 185.21 719.88">
 <polygon class="fil0" points="-11629.02,-12393.65 -11443.81,-12393.65 -11443.81,-11673.77 -11629.02,-11673.77 "/>
</symbol>
<symbol id="t" viewBox="-11636.74 -12424.52 592.56 750.77">
 <polygon class="fil0" points="-11636.74,-12424.52 -11464.21,-12424.52 -11464.21,-12015.51 -11265.77,-12213.95 -11065.13,-12213.94 -11328.61,-11965.89 -11044.18,-11673.75 -11253.64,-11673.76 -11464.21,-11899.21 -11464.21,-11673.76 -11636.74,-11673.76 "/>
</symbol>
<symbol id="a" viewBox="-11706.74 -12367.19 436.56 693.43">
 <path class="fil0" d="M-11448.22 -12367.19l0 153.24 178.04 0 0 123.47 -178.04 0 0 229.31c0,25.08 4.96,41.89 14.88,50.71 9.92,8.82 29.49,13.23 58.98,13.23l88.75 0 0 123.47 -147.73 0c-68.35,0 -116.86,-14.06 -145.52,-42.44 -28.39,-28.66 -42.44,-76.89 -42.44,-144.97l0 -229.31 -85.44 0 0 -123.47 85.44 0 0 -153.24 173.08 0z"/>
</symbol>
<symbol id="e" viewBox="-11677.52 -12227.19 546.26 567.2">
 <path class="fil0" d="M-11394.75 -11916.86c-36.1,0 -63.25,6.06 -81.58,18.19 -18.05,12.13 -27.01,30.18 -27.01,54.02 0,22.05 7.3,39.41 22.05,51.82 14.61,12.13 34.86,18.19 60.64,18.19 32.66,0 60.08,-11.58 82.13,-34.73 22.32,-23.43 33.62,-52.64 33.62,-87.64l0 -19.84 -89.85 -0.01zm263.48 -65.04l0 308.13 -173.63 0 0 -79.93c-23.15,32.8 -49.33,56.64 -78.27,71.66 -29.08,14.61 -64.35,22.05 -105.83,22.05 -55.95,0 -101.29,-16.12 -136.15,-48.51 -35,-32.66 -52.37,-75.1 -52.37,-127.33 0,-63.12 21.64,-109.42 65.05,-138.91 43.68,-29.77 112.17,-44.65 205.6,-44.65l101.96 0.01 0 -13.78c0,-27.15 -10.89,-46.99 -32.52,-59.53 -21.77,-12.82 -55.4,-19.29 -100.87,-19.29 -37.21,0 -71.66,3.72 -103.63,11.02 -31.69,7.44 -61.05,18.47 -88.19,33.07l0 -131.74c36.66,-8.82 73.59,-15.57 110.79,-20.39 37.48,-4.69 74.97,-7.17 112.45,-7.17 97.29,0 167.57,19.29 210.57,57.88 43.27,38.31 65.05,100.74 65.05,187.41l-0.01 0z"/>
</symbol>
<symbol id="c" viewBox="-11636.75 -12227.19 401.28 553.42">
 <path class="fil0" d="M-11235.47 -12066.8c-15.43,-6.89 -30.73,-12.13 -45.75,-15.43 -14.75,-3.58 -29.63,-5.51 -44.65,-5.51 -44.51,0 -78.69,14.33 -102.52,43 -23.98,28.39 -35.83,68.9 -35.83,121.82l0 249.15 -172.53 -0.01 0 -540.17 172.53 -0.01 0 88.74c22.05,-35.28 47.41,-60.91 76.07,-77.17 28.94,-16.54 63.53,-24.8 103.63,-24.8 5.79,0 12.13,0.41 18.74,1.1 6.89,0.41 16.81,1.38 29.77,2.76l0.54 156.53z"/>
</symbol>
<symbol id="u" viewBox="-11670.89 -12406.88 612.94 746.89">
 <path class="fil0" d="M-11057.95 -11713.46c-34.18,17.64 -69.87,30.87 -106.93,39.69 -36.79,9.09 -75.38,13.78 -115.75,13.78 -119.89,0 -214.83,-33.35 -284.98,-100.32 -70.28,-67.25 -105.28,-158.2 -105.28,-272.85 0,-114.93 35,-205.88 105.28,-272.85 70.14,-67.25 165.09,-100.87 284.98,-100.87 40.38,0 78.96,4.69 115.75,13.78 37.07,8.82 72.76,22.05 106.93,39.69l0 148.83c-34.59,-23.15 -68.63,-40.24 -101.97,-51.26 -33.49,-11.02 -68.76,-16.54 -105.83,-16.54 -66.15,0 -118.24,21.36 -155.99,63.94 -37.9,42.31 -56.78,100.74 -56.78,175.29 0,74.28 18.88,132.7 56.78,175.29 37.76,42.31 89.85,63.39 155.99,63.39 37.07,0 72.35,-5.24 105.83,-15.99 33.35,-11.02 67.39,-28.25 101.97,-51.82l0 148.82z"/>
</symbol>
<symbol id="b" viewBox="-11677.51 -12227.19 579.89 567.2">
 <path class="fil0" d="M-11097.63 -11945.52l0 49.61 -404.04 0c4.41,40.51 19.02,70.83 44.1,90.95 24.94,20.26 60.08,30.32 105.28,30.32 36.38,0 73.45,-5.24 111.34,-15.99 38.17,-11.02 77.31,-27.29 117.41,-49.06l0 132.84c-40.79,15.43 -81.58,27.01 -122.37,34.73 -40.79,7.99 -81.58,12.13 -122.37,12.13 -97.84,0 -173.91,-24.8 -228.2,-74.41 -54.02,-49.61 -81.03,-119.2 -81.03,-208.91 0,-88.19 26.6,-157.37 79.93,-207.81 53.19,-50.71 126.36,-76.07 219.39,-76.07 84.89,0 152.82,25.77 203.95,77.17 50.99,51.12 76.62,119.34 76.62,204.5l-0.01 0zm-177.49 -57.32c0,-32.66 -9.65,-58.98 -28.66,-78.82 -19.15,-20.12 -44.1,-30.32 -74.97,-30.32 -33.49,0 -60.64,9.37 -81.58,28.11 -20.94,18.74 -34.04,45.75 -39.14,81.03l224.35 0z"/>
</symbol>
<symbol id="k" viewBox="-11636.74 -12424.52 579.32 764.52">
 <path class="fil0" d="M-11349.55 -11785.11c37.07,0 65.32,-13.37 84.89,-40.24 19.43,-27.15 29.21,-66.42 29.21,-117.96 0,-51.4 -9.78,-90.54 -29.21,-117.41 -19.57,-27.15 -47.82,-40.79 -84.89,-40.79 -37.21,0 -65.6,13.64 -85.44,40.79 -19.57,27.29 -29.21,66.42 -29.21,117.41 0,51.12 9.65,90.26 29.21,117.41 19.84,27.29 48.23,40.79 85.44,40.79zm-114.66 -350.03c23.84,-31.14 50.16,-54.3 78.82,-69.45 28.94,-15.02 62.29,-22.6 99.77,-22.6 66.83,0 121.54,26.46 164.26,79.37 42.58,52.92 63.94,121.13 63.94,204.5 0,83.1 -21.36,151.03 -63.94,203.95 -42.72,52.92 -97.43,79.37 -164.26,79.37 -37.48,0 -70.83,-7.44 -99.77,-22.05 -28.66,-15.02 -54.98,-38.31 -78.82,-70.01l0 78.27 -172.53 0.02 0 -750.75 172.53 0 0 289.38z"/>
</symbol>
<symbol id="l" viewBox="-11675.3 -12424.52 579.32 764.54">
 <path class="fil0" d="M-11269.61 -12135.13l0 -289.39 173.63 0 0 750.75 -173.63 0 0 -78.27c-23.56,31.97 -49.61,55.4 -78.27,70.01 -28.66,14.61 -62.01,22.05 -99.77,22.05 -66.56,0 -121.13,-26.46 -163.71,-79.37 -42.72,-52.92 -63.94,-120.85 -63.94,-203.95 0,-83.37 21.22,-151.59 63.94,-204.5 42.58,-52.92 97.15,-79.37 163.71,-79.37 37.48,0 70.56,7.58 99.22,22.6 28.94,15.16 55.26,38.31 78.82,69.45l0 -0.01zm-113.56 350.02c36.66,0 64.77,-13.37 84.34,-40.24 19.43,-27.15 29.21,-66.42 29.21,-117.96 0,-51.4 -9.78,-90.54 -29.21,-117.41 -19.57,-27.15 -47.68,-40.79 -84.34,-40.79 -36.79,0 -64.9,13.64 -84.34,40.79 -19.57,26.87 -29.21,66.01 -29.21,117.41 0,51.54 9.65,90.81 29.21,117.96 19.43,26.87 47.54,40.24 84.34,40.24z"/>
</symbol>
 <g id="Camada_x0020_1">
  <metadata id="CorelCorpID_0Corel-Layer"/>
  <path class="fil1" d="M1034.58 906.35l0 255.66c0,19.55 -7.79,38.29 -21.62,52.11 -13.82,13.82 -32.56,21.62 -52.11,21.62l-41.32 0 0 41.3c0,19.55 -7.79,38.28 -21.61,52.11 -13.81,13.82 -32.55,21.62 -52.1,21.62l-779.82 0c-19.55,0 -38.29,-7.8 -52.11,-21.62 -13.82,-13.82 -21.62,-32.56 -21.62,-52.11l0 -1084.38c0,-19.55 7.79,-38.29 21.62,-52.11 13.82,-13.82 32.56,-21.6 52.1,-21.62 13.76,-0.01 24.91,11.16 24.91,24.91 0,13.75 -11.14,24.9 -24.89,24.91 -13.2,0.01 -23.92,10.7 -23.92,23.91l0 1084.38c0,13.2 10.71,23.91 23.91,23.91l779.82 0c13.2,0 23.89,-10.71 23.89,-23.9l0 -41.31 -688.7 0c-19.54,0 -38.29,-7.8 -52.1,-21.61 -13.82,-13.81 -21.63,-32.56 -21.63,-52.11l0 -1084.39c0,-19.55 7.81,-38.28 21.62,-52.11 13.81,-13.82 32.56,-21.62 52.11,-21.62l779.82 0c19.55,0 38.29,7.8 52.11,21.62 13.82,13.82 21.62,32.56 21.62,52.11l0 504.27 16.5 -16.49c28.87,-28.85 71.35,-40.12 110.74,-29.54 39.53,10.62 70.41,41.51 81.03,81.04 10.57,39.36 -0.72,81.9 -29.55,110.73l-178.7 178.71zm-49.83 49.78l-128.1 128.1c-0.84,0.84 -1.72,1.46 -2.28,1.72 -1.95,1.6 -4.67,3.1 -7.1,3.92 -0.42,0.31 -1.44,0.75 -2.63,1.02l-165.03 38.03c-1.84,0.43 -3.72,0.64 -5.6,0.64 -7.59,0 -14.77,-3.46 -19.49,-9.4 -4.71,-5.91 -6.48,-13.74 -4.78,-21.1l38.05 -165.12c0.3,-1.21 0.72,-2.17 1.04,-2.64 0.78,-2.32 2.26,-5.01 3.9,-7.02 0.19,-0.5 0.82,-1.4 1.69,-2.27l290.32 -290.31 0 -554.08c0,-13.2 -10.71,-23.91 -23.91,-23.91l-779.82 0c-13.2,0 -23.91,10.71 -23.91,23.91l0 1084.38c0,13.2 10.71,23.91 23.91,23.91l779.82 0c13.2,0 23.91,-10.71 23.91,-23.91l0.01 -205.87zm-516.85 -846.03c12.96,0 25.38,5.18 34.54,14.34 9.16,9.15 14.33,21.57 14.33,34.53l0 213.28c0,12.96 -5.16,25.39 -14.33,34.55 -9.16,9.16 -21.58,14.33 -34.54,14.33l-213.26 0c-12.96,0 -25.39,-5.16 -34.55,-14.33 -9.17,-9.16 -14.32,-21.59 -14.32,-34.55l0 -213.28c0,-12.95 5.16,-25.38 14.32,-34.53 9.17,-9.16 21.59,-14.34 34.55,-14.34l213.26 0zm-0.95 261.21l0 -211.38 -211.37 0 0 211.38 211.37 0zm-70.46 -105.69l51.72 51.73c9.73,9.73 9.73,25.49 0,35.22 -9.73,9.73 -25.5,9.73 -35.23,0l-51.72 -51.73 -51.71 51.73c-9.72,9.73 -25.5,9.72 -35.22,0 -9.73,-9.73 -9.73,-25.49 0,-35.22l51.71 -51.73 -51.71 -51.73c-9.73,-9.73 -9.73,-25.5 0.01,-35.23 9.72,-9.7 25.5,-9.72 35.22,0l51.71 51.73 51.72 -51.72c4.67,-4.68 11,-7.3 17.61,-7.3 6.61,0 12.93,2.62 17.6,7.29 4.68,4.67 7.31,11.01 7.31,17.62 0,6.61 -2.63,12.94 -7.3,17.61l-51.72 51.73zm233.14 -105.69c-13.76,0 -24.9,-11.17 -24.9,-24.92 0,-13.75 11.15,-24.91 24.9,-24.91l141.35 0c13.74,0 24.9,11.17 24.9,24.91 0,13.75 -11.15,24.92 -24.9,24.92l-141.35 0zm0 87.05c-13.75,0 -24.9,-11.16 -24.9,-24.91 0,-13.75 11.14,-24.92 24.9,-24.92l279.08 0c13.76,0 24.91,11.16 24.91,24.92 0,13.75 -11.16,24.91 -24.91,24.91l-279.08 0zm0 87.08c-13.75,0 -24.9,-11.16 -24.9,-24.91 0,-13.75 11.15,-24.9 24.9,-24.9l279.08 0c13.75,0 24.91,11.15 24.91,24.9 0,13.76 -11.15,24.91 -24.91,24.91l-279.08 0zm0 87.06c-13.76,0 -24.9,-11.17 -24.9,-24.92 0,-13.74 11.16,-24.9 24.9,-24.9l279.08 0c13.75,0 24.91,11.15 24.91,24.9 0,13.76 -11.15,24.92 -24.91,24.92l-279.08 0zm-161.73 43.2c12.96,0 25.38,5.17 34.54,14.33 9.16,9.16 14.33,21.58 14.33,34.54l0 213.28c0,12.96 -5.16,25.38 -14.34,34.54 -9.16,9.15 -21.57,14.33 -34.53,14.33l-213.26 0c-12.96,0 -25.37,-5.18 -34.54,-14.33 -9.18,-9.16 -14.33,-21.58 -14.33,-34.54l0 -213.28c0,-12.96 5.15,-25.38 14.32,-34.54 9.16,-9.17 21.59,-14.33 34.55,-14.33l213.26 0zm-0.95 261.2l0 -211.39 -211.37 0 0 211.39 211.37 0zm-70.46 -105.7l51.72 51.73c9.72,9.72 9.72,25.5 0,35.22 -9.72,9.72 -25.5,9.72 -35.22,0l-51.73 -51.73 -51.71 51.73c-4.67,4.67 -10.99,7.33 -17.61,7.34 -6.61,0.01 -12.97,-2.62 -17.65,-7.31 -4.68,-4.69 -7.31,-11.02 -7.29,-17.66 0.02,-6.6 2.66,-12.92 7.33,-17.59l51.71 -51.73 -51.71 -51.73c-9.73,-9.73 -9.73,-25.49 0,-35.22 9.72,-9.73 25.51,-9.73 35.23,0l51.71 51.73 51.72 -51.73c4.67,-4.67 11,-7.3 17.61,-7.3 6.61,0 12.93,2.63 17.6,7.29 4.68,4.67 7.31,11.02 7.31,17.63 0,6.6 -2.63,12.93 -7.3,17.6l-51.72 51.73zm233.14 -105.68c-13.75,0 -24.9,-11.16 -24.9,-24.91 0,-13.75 11.15,-24.91 24.9,-24.91l141.35 0c13.74,0 24.9,11.17 24.9,24.91 0,13.74 -11.16,24.91 -24.9,24.91l-141.35 0zm0 87.05c-13.74,0 -24.9,-11.16 -24.9,-24.9 0,-13.75 11.15,-24.91 24.9,-24.91l279.08 0c13.76,0 24.91,11.15 24.91,24.91 0,13.75 -11.16,24.9 -24.91,24.9l-279.08 0zm0 87.08c-13.75,0 -24.9,-11.16 -24.9,-24.91 0,-13.75 11.15,-24.91 24.9,-24.91l259.08 0c13.76,0 24.91,11.15 24.91,24.91 0,13.76 -11.15,24.91 -24.91,24.91l-259.08 0zm0 87.06c-13.75,0 -24.9,-11.16 -24.9,-24.91 0,-13.75 11.14,-24.92 24.9,-24.92l179.87 0c13.75,0 24.91,11.17 24.91,24.92 0,13.75 -11.16,24.91 -24.91,24.91l-179.87 0zm-161.73 43.2c12.96,0 25.38,5.17 34.54,14.33 9.16,9.16 14.33,21.58 14.33,34.54l0 213.27c0,12.96 -5.16,25.39 -14.33,34.55 -9.16,9.16 -21.58,14.32 -34.54,14.32l-213.26 0c-12.96,0 -25.39,-5.15 -34.55,-14.32 -9.17,-9.16 -14.32,-21.59 -14.32,-34.55l0 -213.27c0,-12.96 5.16,-25.38 14.32,-34.54 9.16,-9.17 21.59,-14.33 34.55,-14.33l213.26 0zm-0.95 261.2l0 -211.38 -211.37 0 0 211.38 211.37 0zm-70.46 -105.7l51.72 51.73c9.73,9.73 9.73,25.5 0,35.22 -9.73,9.72 -25.5,9.73 -35.22,0l-51.72 -51.73 -51.72 51.73c-9.72,9.72 -25.49,9.72 -35.22,0 -9.73,-9.72 -9.73,-25.49 0,-35.22l51.71 -51.73 -51.71 -51.73c-4.67,-4.67 -7.33,-10.99 -7.35,-17.59 -0.02,-6.62 2.59,-12.98 7.26,-17.67 4.68,-4.71 11.07,-7.34 17.71,-7.32 6.61,0.02 12.93,2.69 17.6,7.36l51.72 51.73 51.72 -51.73c4.67,-4.67 11,-7.29 17.61,-7.29 6.61,0 12.93,2.62 17.6,7.29 4.68,4.67 7.31,11 7.31,17.61 0,6.61 -2.63,12.94 -7.3,17.61l-51.72 51.73zm233.14 -105.68c-13.76,0 -24.9,-11.17 -24.9,-24.92 0,-13.75 11.15,-24.9 24.9,-24.9l90.86 0c13.75,0 24.91,11.15 24.91,24.9 0,13.75 -11.16,24.92 -24.91,24.92l-90.86 0zm43.5 62.14c0,6.61 -2.62,12.95 -7.3,17.62 -4.67,4.67 -11,7.3 -17.61,7.3l-18.6 0c-13.76,0 -24.9,-11.17 -24.9,-24.92 0,-13.75 11.15,-24.9 24.9,-24.9l18.6 0c6.61,0 12.94,2.62 17.61,7.29 4.67,4.67 7.3,11 7.3,17.61zm-35.04 62.18c13.76,0 24.92,11.14 24.92,24.9 0,13.76 -11.16,24.91 -24.92,24.91l-8.47 0c-13.75,0 -24.9,-11.16 -24.9,-24.91 0,-13.75 11.15,-24.9 24.9,-24.9l8.47 0zm88.13 -3.63l-18.98 82.41 82.41 -18.99 -63.43 -63.42zm422.78 -267.59l-91.78 -91.77 -309.96 309.96 91.77 91.78 309.97 -309.97zm-56.15 -126.57l90.97 90.96c12.01,-15.77 16.15,-36.75 10.96,-56.09 -6,-22.37 -23.48,-39.85 -45.85,-45.85 -19.46,-5.22 -40.25,-1.03 -56.08,10.98z"/>
 </g>
</svg>
